<?xml version="1.0" encoding="utf-8"?>
<!-- Generator: Adobe Illustrator 18.1.1, SVG Export Plug-In . SVG Version: 6.00 Build 0)  -->
<svg version="1.1" id="Layer_1" xmlns="http://www.w3.org/2000/svg" xmlns:xlink="http://www.w3.org/1999/xlink" x="0px" y="0px"
	 viewBox="0 0 1024 400" enable-background="new 0 0 1024 400" xml:space="preserve">
<g>
	<g>
		<path fill="#26CAD3" d="M935,207.3v-4.2h3.4c1.7,0,2.7,0.8,2.7,2v0.1c0,1.3-1.1,2.1-2.8,2.1H935z M933.2,213.3h1.7v-4.4h3l3.4,4.4
			h2.1l-3.6-4.7c1.8-0.4,3-1.5,3-3.4v-0.1c0-0.9-0.4-1.7-0.9-2.3c-0.8-0.8-2-1.2-3.5-1.2h-5.2V213.3z M937.7,218.2
			c-5.9,0-10.4-4.7-10.4-10.4v-0.1c0-5.7,4.5-10.4,10.4-10.4c5.9,0,10.4,4.7,10.4,10.4v0.1C948.1,213.5,943.6,218.2,937.7,218.2
			 M937.7,219.2c6.4,0,11.5-5.2,11.5-11.4v-0.1c0-6.2-5-11.4-11.4-11.4s-11.5,5.2-11.5,11.4v0.1C926.3,214,931.3,219.2,937.7,219.2"
			/>
		<path fill="#26CAD3" d="M402.3,160.3L402.3,160.3v-0.4c0-33.4-26.6-60-62.6-60c-12.4,0-23.8,3.2-33.3,8.8
			c6.2,6.8,11.7,16.3,15.1,24.9l1.6-1c4.4-2.8,9.8-4.4,16.1-4.4c18.2,0,30.5,14.9,30.5,32.1v0.4c0,17.1-11.3,31.6-30.1,31.6
			c-16.6,0-28.3-12.5-30.2-27.7l-2.5-13l0,0c-4-29.4-28.1-51.8-61-51.8c-36.2,0-63,27.1-63,60.4h0v0.4c0,33.4,26.6,60,62.6,60
			c12.4,0,23.8-3.2,33.3-8.8c-6.2-6.8-11.7-16.3-15.1-24.9l-1.6,1c-4.4,2.8-9.8,4.4-16.1,4.4c-18.2,0-30.5-14.9-30.5-32.1h0v-0.4
			c0-17.1,11.3-31.6,30.1-31.6c16.6,0,28.3,12.5,30.2,27.7l2.5,12.8l0,0c3.8,29.5,28.1,52,61.1,52
			C375.4,220.7,402.3,193.7,402.3,160.3"/>
		<path fill="#26CAD3" d="M133.5,221.3c23,0,36-8.8,47.2-21.1l-19.2-19.4c-8,7.5-15.5,12.3-26.5,12.3c-17.9,0-29.3-14.2-29.3-31.9
			v-0.4c0-17,11.6-31.4,28-31.4c11.6,0,19,5,26.3,12.7l20-21.5c-10.8-12.1-24.3-19.4-46.1-19.4c-35.3,0-60.5,27.1-60.5,60.1v0.4
			C73.4,194.5,98.8,221.3,133.5,221.3"/>
	</g>
	<polygon fill="#26CAD3" points="449.7,74 417,80.2 417,218.7 449.7,218.7 	"/>
	<g>
		<path fill="#26CAD3" d="M555.2,161.2c0,19.4-12.9,31.9-28.2,31.9c-15.3,0-28-12.7-28-31.9v-0.4c0-19.2,12.7-31.9,28-31.9
			c15.3,0,28.2,12.7,28.2,31.9V161.2z M587.9,161.2v-0.4c0-38.6-25.6-59.7-52.6-59.7c-17,0-28,8-36,18.7v-16.6h-32.7v149.9h32.7
			v-49.5c7.8,9.3,18.5,17.2,36,17.2C562.7,220.8,587.9,199.7,587.9,161.2"/>
		<path fill="#26CAD3" d="M671.9,178c0,11.8-10.3,20.2-25.6,20.2c-10.6,0-17.9-5.2-17.9-14v-0.4c0-10.3,8.6-15.9,22.6-15.9
			c8,0,15.3,1.7,20.9,4.3V178z M702.9,218.7v-67c0-15.5-3.9-28.2-12.5-36.8c-8.2-8.2-21.1-12.9-39-12.9c-19.6,0-32.1,3.7-44.8,9.3
			l8.2,25c10.6-3.9,19.4-6.2,31.9-6.2c16.4,0,24.8,7.5,24.8,21.1v1.9c-8.2-2.8-16.6-4.7-28.2-4.7c-27.4,0-46.5,11.6-46.5,36.8v0.4
			c0,22.8,17.9,35.3,39.6,35.3c15.9,0,26.9-5.8,34.9-14.6v12.5H702.9z"/>
		<path fill="#26CAD3" d="M719.8,218.7h32.7v-64.4c0-15.5,8-23.5,20.5-23.5s19.8,8,19.8,23.5v64.4h32.7v-74.7
			c0-26.5-14.4-42.9-39.2-42.9c-16.6,0-26.3,8.8-33.8,18.5v-16.4h-32.7V218.7z"/>
		<path fill="#26CAD3" d="M869,253.8c19.6,0,29.1-8.8,37.9-32.3l44.4-118.2h-34L892,181.8l-26.3-78.6h-34.7l45.2,115.9
			c-2.8,5.8-5.8,7.5-11.4,7.5c-4.3,0-9.7-1.9-14-4.5l-11,23.7C848.3,250.8,857.1,253.8,869,253.8"/>
	</g>
</g>
<g>
	<path fill="#707C7C" d="M241.2,303.3h2.5l10.6,23.4h-2.8l-2.7-6.1h-12.6l-2.8,6.1h-2.7L241.2,303.3z M247.7,318.2l-5.3-11.8
		l-5.3,11.8H247.7z"/>
	<path fill="#707C7C" d="M260.1,303.5h8.7c5.2,0,8.7,2.8,8.7,7.4v0.1c0,5-4.2,7.6-9.1,7.6h-5.6v8.2h-2.6V303.5z M268.5,316.1
		c3.8,0,6.4-2.1,6.4-5.1v-0.1c0-3.3-2.5-5-6.2-5h-5.9v10.2H268.5z"/>
	<path fill="#707C7C" d="M283.6,303.5h8.7c5.2,0,8.7,2.8,8.7,7.4v0.1c0,5-4.2,7.6-9.1,7.6h-5.6v8.2h-2.6V303.5z M291.9,316.1
		c3.8,0,6.4-2.1,6.4-5.1v-0.1c0-3.3-2.5-5-6.2-5h-5.9v10.2H291.9z"/>
	<path fill="#707C7C" d="M317.6,315h3v3.5h-3V315z"/>
	<path fill="#707C7C" d="M337.2,303.5h2.8l6.6,19.3l6.4-19.4h2.2l6.4,19.4l6.6-19.3h2.8l-8.3,23.4h-2.2l-6.4-18.8l-6.4,18.8h-2.2
		L337.2,303.5z"/>
	<path fill="#707C7C" d="M377,303.5h16.8v2.4h-14.1v7.9h12.7v2.4h-12.7v8.1h14.3v2.4H377V303.5z"/>
	<path fill="#707C7C" d="M400.5,303.5h9.9c2.7,0,4.7,0.8,6.1,2.1c1,1,1.5,2.2,1.5,3.7v0.1c0,3-1.9,4.6-3.7,5.4c2.8,0.8,5,2.4,5,5.6
		v0.1c0,4-3.3,6.3-8.4,6.3h-10.3V303.5z M410,313.8c3.1,0,5.3-1.4,5.3-4.1v-0.1c0-2.3-1.8-3.8-5.1-3.8h-7.1v8H410z M410.9,324.3
		c3.5,0,5.7-1.6,5.7-4.1v-0.1c0-2.5-2.1-4-6.2-4h-7.3v8.2H410.9z"/>
	<path fill="#707C7C" d="M436.3,315h3v3.5h-3V315z"/>
	<path fill="#707C7C" d="M457.8,303.5h2.7l8.4,12.7l8.4-12.7h2.7v23.2h-2.6v-18.8l-8.4,12.4h-0.1l-8.4-12.4v18.8h-2.6V303.5z"/>
	<path fill="#707C7C" d="M487.9,303.5h16.8v2.4h-14.1v7.9h12.7v2.4h-12.7v8.1h14.3v2.4h-16.9V303.5z"/>
	<path fill="#707C7C" d="M511.4,303.5h8.1c7.3,0,12.3,5,12.3,11.5v0.1c0,6.5-5,11.6-12.3,11.6h-8.1V303.5z M519.4,324.3
		c5.9,0,9.6-4,9.6-9.1v-0.1c0-5.1-3.7-9.2-9.6-9.2H514v18.4H519.4z"/>
	<path fill="#707C7C" d="M538.8,303.5h2.6v23.2h-2.6V303.5z"/>
	<path fill="#707C7C" d="M558.2,303.3h2.5l10.6,23.4h-2.8l-2.7-6.1H553l-2.8,6.1h-2.7L558.2,303.3z M564.6,318.2l-5.3-11.8
		l-5.3,11.8H564.6z"/>
	<path fill="#707C7C" d="M587.6,315h3v3.5h-3V315z"/>
	<path fill="#707C7C" d="M609.1,303.5h2.7l8.4,12.7l8.4-12.7h2.7v23.2h-2.6v-18.8l-8.4,12.4h-0.1l-8.5-12.4v18.8h-2.6V303.5z"/>
	<path fill="#707C7C" d="M639.4,303.5h2.6v23.2h-2.6V303.5z"/>
	<path fill="#707C7C" d="M650.1,303.5h10c2.8,0,5.1,0.9,6.6,2.3c1.1,1.1,1.8,2.8,1.8,4.6v0.1c0,3.8-2.7,6.1-6.3,6.8l7.1,9.5h-3.2
		l-6.7-9h-6.6v9h-2.6V303.5z M659.9,315.3c3.5,0,6-1.8,6-4.8v-0.1c0-2.8-2.2-4.6-5.9-4.6h-7.2v9.4H659.9z"/>
	<path fill="#707C7C" d="M684,303.3h2.5l10.6,23.4h-2.8l-2.7-6.1h-12.6l-2.8,6.1h-2.7L684,303.3z M690.4,318.2l-5.3-11.8l-5.3,11.8
		H690.4z"/>
	<path fill="#707C7C" d="M700.5,315.2L700.5,315.2c0-6.6,4.9-12.1,11.7-12.1c4.2,0,6.7,1.5,9,3.7l-1.8,1.9c-2-1.9-4.1-3.2-7.3-3.2
		c-5.1,0-9,4.2-9,9.5v0.1c0,5.4,3.9,9.6,9,9.6c3.2,0,5.3-1.2,7.5-3.3l1.7,1.7c-2.4,2.5-5.1,4.1-9.3,4.1
		C705.5,327.1,700.5,321.8,700.5,315.2z"/>
	<path fill="#707C7C" d="M727.3,303.5h2.6v20.8H743v2.4h-15.7V303.5z"/>
	<path fill="#707C7C" d="M749.2,303.5h16.8v2.4h-14.1v7.9h12.7v2.4h-12.7v8.1h14.3v2.4h-16.9V303.5z"/>
	<path fill="#707C7C" d="M771.2,323.3l1.6-1.9c2.4,2.2,4.7,3.3,8,3.3c3.1,0,5.2-1.7,5.2-3.9v-0.1c0-2.2-1.2-3.4-6-4.4
		c-5.3-1.2-7.8-2.9-7.8-6.7v-0.1c0-3.6,3.2-6.3,7.6-6.3c3.4,0,5.8,1,8.2,2.8l-1.5,2c-2.2-1.8-4.3-2.5-6.7-2.5c-3,0-4.9,1.7-4.9,3.7
		v0.1c0,2.2,1.2,3.4,6.3,4.5c5.2,1.1,7.6,3,7.6,6.6v0.1c0,4-3.3,6.6-7.9,6.6C777,327,773.9,325.8,771.2,323.3z"/>
</g>
</svg>
